<svg xmlns="http://www.w3.org/2000/svg" width="253.659" height="253.659" viewBox="0 0 253.659 253.659">
  <g id="about" transform="translate(0.5 0.5)">
    <g id="Group_23" data-name="Group 23" transform="translate(-0.5 -0.5)">
      <path id="Path_39" data-name="Path 39" d="M119.889-.5H132.77Q166.1,8.448,164.23,43.1a41.266,41.266,0,0,1-14.615,25.267q18.868,7.353,23.037,27.249A40.858,40.858,0,0,1,183.8,89.42q-21.848-18.241-12.633-45.332,15.11-29.6,47.561-21.8,21.481,8.108,25.762,30.717,2.566,22.548-15.111,36.414,19.46,6.944,23.781,27V162a16.245,16.245,0,0,1-8.422,9.909q-3.84,16.6-20.808,18.083-13.127.372-26.258.248-7.052,45.329-50.534,60.195-6.225,1.693-12.386,2.725H117.907q-37.292-5.7-55.736-38.643a70.7,70.7,0,0,1-7.184-24.276q-15.381.287-30.717-.743-13.428-3.891-16.349-17.588A16.244,16.244,0,0,1-.5,162V116.421q4.321-20.057,23.781-27Q5.425,75.36,8.17,52.511q7.9-32.413,41.368-31.955Q75.049,24.018,82.98,48.547q5.5,24.869-14.12,40.873a40.857,40.857,0,0,1,11.147,6.193q4.17-19.9,23.037-27.249Q81.907,49.71,90.907,22.785,99.565,3.791,119.889-.5Zm1.486,8.918q27.168-1.428,33.937,24.771Q157.227,55,137.724,64.649q-25.744,8.021-38.4-15.606-7.7-22.605,11.643-36.414A58.663,58.663,0,0,1,121.375,8.418ZM44.089,29.226q24.4.5,30.717,24.028Q77.356,75.9,56.97,85.952q-25.321,7.461-37.9-15.606-8.312-26.361,16.1-38.891A44.058,44.058,0,0,1,44.089,29.226Zm160.519,0q24.878.733,30.964,24.771,2.21,22.467-18.083,31.955-25.619,7.563-37.9-16.1-7.407-22.712,12.138-36.414A38.822,38.822,0,0,1,204.607,29.226ZM110.971,75.8q16.874-.323,33.689.743,15.879,4.378,19.074,20.56.5,11.395,0,22.79a93.258,93.258,0,0,0-11.395-5.945q-.247-6.936-.5-13.872-1.563-4.436-6.193-3.22a3.72,3.72,0,0,0-2.229,2.229q-.372,5.94-.248,11.89a96.2,96.2,0,0,0-33.689,0q.123-5.95-.248-11.89a4.4,4.4,0,0,0-5.7-2.229,4.477,4.477,0,0,0-2.725,3.22q-.247,6.936-.5,13.872a93.259,93.259,0,0,0-11.395,5.945q-.5-11.395,0-22.79Q92.991,79.167,110.971,75.8ZM29.721,97.1q16.351-.124,32.7.248Q86.349,102.5,79.512,126.33l-7.431,7.431a110.7,110.7,0,0,0-.991-13.872q-3.963-3.963-7.927,0-.247,13.872-.5,27.744A75.136,75.136,0,0,0,54,181.074a216.658,216.658,0,0,1-28.239-.5,11.624,11.624,0,0,1-7.927-8.175q9.091-1.784,11.147-10.9.5-20.561,0-41.121a3.478,3.478,0,0,0-3.963-2.477,3.767,3.767,0,0,0-4.459,2.973q-.248,19.569-.5,39.139-3.415,6.176-9.661,2.725a7.842,7.842,0,0,1-1.734-2.725q-.5-21.055,0-42.111Q12.716,100.851,29.721,97.1Zm160.519,0q17.621-.334,35.175.743,15.208,4.556,18.579,20.065.5,21.055,0,42.111-3.492,6.307-9.661,2.477a12.926,12.926,0,0,1-1.734-2.477q-.247-19.569-.5-39.139a3.767,3.767,0,0,0-4.459-2.973,3.478,3.478,0,0,0-3.963,2.477q-.5,20.561,0,41.121,2.056,9.116,11.147,10.9a11.625,11.625,0,0,1-7.927,8.175,172.971,172.971,0,0,1-28.487.248,70.764,70.764,0,0,0-8.422-33.194q-.247-13.872-.5-27.744-3.963-3.963-7.927,0a110.707,110.707,0,0,0-.991,13.872l-7.431-7.431a92.335,92.335,0,0,1,.5-18.826A27.1,27.1,0,0,1,190.24,97.1Zm-64.406,20.808q46.1,2.642,61.185,46.075,9.293,39.247-20.56,66.14Q133.7,254.479,96.6,237.058,60.648,215.81,63.658,173.891q5.158-34.251,35.919-49.791A72.649,72.649,0,0,1,125.834,117.907Zm-3.963,17.34q18.023-1.58,27,13.872,7.356,18.016-7.184,30.964a34.842,34.842,0,0,1-9.909,4.954,3.457,3.457,0,0,0-1.239,1.734,14.091,14.091,0,0,1-1.239,5.45q-4.138,3.308-6.688-1.486a12.165,12.165,0,0,1,3.22-12.138q5.041-1.756,9.909-3.963,9.867-7.128,7.184-19.074-5.319-14.367-20.56-12.138Q108.784,147.65,108.742,162q-5.7,4.824-7.679-2.477Q103.348,140.293,121.871,135.247Zm3.468,84.223q5.176.343,4.707,5.45a4.023,4.023,0,0,1-5.2,2.229Q119.83,223.071,125.339,219.47Z" transform="translate(0.5 0.5)" fill-rule="evenodd" opacity="0.94"/>
    </g>
  </g>
</svg>
