<svg xmlns="http://www.w3.org/2000/svg" width="230.229" height="230.229" viewBox="0 0 230.229 230.229">
  <g id="restaurant" transform="translate(0.5 0.5)">
    <g id="Group_3" data-name="Group 3" transform="translate(-0.5 -0.5)">
      <path id="Path_19" data-name="Path 19" d="M1.748-.5h4.5A14.764,14.764,0,0,1,8.268,1.748q.337,25.405.225,50.812h8.094q-.112-25.407.225-50.812A14.764,14.764,0,0,1,18.836-.5h4.5a14.764,14.764,0,0,1,2.023,2.248q.337,25.405.225,50.812h8.094q-.112-25.407.225-50.812A14.764,14.764,0,0,1,35.923-.5h4.5a14.764,14.764,0,0,1,2.023,2.248q.337,25.405.225,50.812h8.094q-.113-25.407.225-50.812A14.778,14.778,0,0,1,53.01-.5h4.5A14.778,14.778,0,0,1,59.53,1.748q.45,31.027,0,62.054A28.544,28.544,0,0,1,43.342,84.487q-.225,67.674-.45,135.349a14,14,0,0,1-9.668,9.893H26.03a14,14,0,0,1-9.668-9.893q-.225-67.674-.45-135.349A29.448,29.448,0,0,1-.5,63.8V1.748ZM8.943,61.554H50.312Q47.653,73.5,35.923,77.067a5.184,5.184,0,0,0-1.574,2.023q-.225,68.574-.45,137.148-1.394,5.876-6.97,3.372a5.1,5.1,0,0,1-1.574-3.372q-.225-68.574-.45-137.148a5.184,5.184,0,0,0-1.574-2.023Q11.344,73.736,8.943,61.554Z" transform="translate(0.5 0.5)" fill-rule="evenodd" opacity="0.99"/>
    </g>
    <g id="Group_4" data-name="Group 4" transform="translate(187.46 -0.5)">
      <path id="Path_20" data-name="Path 20" d="M453.023-.5h4.5l2.248,2.248V219.836a14.865,14.865,0,0,1-9.893,9.893h-7.195a14,14,0,0,1-9.668-9.893q-.225-34.849-.45-69.7-5.866-5.641-11.242-11.691a21.726,21.726,0,0,1-3.6-8.544q-.45-35.973,0-71.946Q422.508,20.742,453.023-.5Zm-2.7,14.389q.786,101.062.225,202.349-1.394,5.876-6.97,3.372a5.1,5.1,0,0,1-1.574-3.372q-.225-35.074-.45-70.148-5.6-6.276-11.691-12.141a22.729,22.729,0,0,1-2.7-5.4q-1.1-31.01-.45-62.054Q427.588,35.1,450.325,13.889Z" transform="translate(-417.5 0.5)" fill-rule="evenodd" opacity="0.984"/>
    </g>
    <g id="Group_5" data-name="Group 5" transform="translate(72.795 28.278)">
      <path id="Path_21" data-name="Path 21" d="M202.071,63.5q35.5-.052,61.6,23.607a17.657,17.657,0,0,1,4.272,5.171q.562,6.632-6.07,6.07-5.37-4.245-10.342-8.993-31.407-23.233-69.248-13.04a131.036,131.036,0,0,0-13.49,5.4q-5.36.944-6.3-4.5a6.567,6.567,0,0,1,4.946-5.4A94.564,94.564,0,0,1,202.071,63.5Z" transform="translate(-162.5 -63.5)" fill-rule="evenodd" opacity="0.94"/>
    </g>
    <g id="Group_6" data-name="Group 6" transform="translate(50.571 50.554)">
      <path id="Path_22" data-name="Path 22" d="M169.475,113.246q41.71-2.81,63.628,32.376a65.488,65.488,0,0,1,5.846,48.564q-12.962,39.7-54.185,46.54-42.4,3.143-64.077-33.05a65.639,65.639,0,0,1-5.4-47.665q10.679-34.062,44.742-44.742Q164.835,114.2,169.475,113.246Zm7.195,8.993q35.82,1.879,51.037,34.175,11.162,31.056-9.443,56.658-26.258,26.97-61.829,14.614-32.271-14.953-33.725-50.587,1.454-35.634,33.725-50.587A62.68,62.68,0,0,1,176.669,122.239Z" transform="translate(-113.076 -113.038)" fill-rule="evenodd" opacity="0.943"/>
    </g>
    <g id="Group_7" data-name="Group 7" transform="translate(109.719 73.103)">
      <path id="Path_23" data-name="Path 23" d="M247.261,163.326q7.975-1.13,6.52,6.745-4,5.03-8.544.45Q243.33,166.036,247.261,163.326Z" transform="translate(-244.614 -163.184)" fill-rule="evenodd" opacity="0.899"/>
    </g>
    <g id="Group_8" data-name="Group 8" transform="translate(73.454 75.943)">
      <path id="Path_24" data-name="Path 24" d="M189.387,169.5q7.947.15,5.171,7.644-21.13,9.871-22.034,33.275a5.554,5.554,0,0,1-6.52,2.023,6.524,6.524,0,0,1-2.023-2.023Q163.333,181.573,189.387,169.5Z" transform="translate(-163.965 -169.5)" fill-rule="evenodd" opacity="0.934"/>
    </g>
    <g id="Group_9" data-name="Group 9" transform="translate(65.972 160.476)">
      <path id="Path_25" data-name="Path 25" d="M258.022,357.495q8.487-.183,5.621,7.644-33.859,39.785-85.661,30.8a91.925,91.925,0,0,1-26.53-10.342q-5.887-2.445-3.372-8.319a5.212,5.212,0,0,1,5.621-1.574q41.314,25.107,83.188.9A116.522,116.522,0,0,0,258.022,357.495Z" transform="translate(-147.326 -357.491)" fill-rule="evenodd" opacity="0.941"/>
    </g>
    <g id="Group_10" data-name="Group 10" transform="translate(52.587 167.491)">
      <path id="Path_26" data-name="Path 26" d="M119.781,373.275q7.118-1.236,6.97,5.846-2.486,5.6-7.869,2.473Q115.846,376.988,119.781,373.275Z" transform="translate(-117.56 -373.092)" fill-rule="evenodd" opacity="0.896"/>
    </g>
  </g>
</svg>
