<svg xmlns="http://www.w3.org/2000/svg" width="225.708" height="225.708" viewBox="0 0 225.708 225.708">
  <g id="franchise" transform="translate(0.5 0.5)">
    <g id="Group_17" data-name="Group 17" transform="translate(-0.5 -0.5)">
      <path id="Path_33" data-name="Path 33" d="M116.321-.5H219.477a5.071,5.071,0,0,1,1.543,2.645q.872,8.834,1.984,17.633-2.089,5.915-6.833,1.763-1.036-7.5-1.984-14.988a143.217,143.217,0,0,0-15.87-.441q-.11,19.839.22,39.675,3.962,12.268,15.65,6.833a9.753,9.753,0,0,0,3.968-8.817,89.962,89.962,0,0,1-.661-12.564q2.843-3.27,6.172-.441.941,4.689,1.543,9.258v8.376a21.511,21.511,0,0,1-6.833,10.139q-.441,19.838,0,39.675a13.175,13.175,0,0,1,6.833,7.494v6.613a12.327,12.327,0,0,1-8.817,7.715q-41.217.331-82.436.22a102.547,102.547,0,0,1,1.1,19.4,18.658,18.658,0,0,1-7.935,11.9q-.331,24.465-.22,48.933,8.379,2.886,8.817,11.9-.934,9.511-9.7,12.784H8.758A15.976,15.976,0,0,1-.5,215.95V208.9a13.205,13.205,0,0,1,8.376-8.376q.11-24.468-.22-48.933A19.886,19.886,0,0,1-.5,139.686v-8.817q2.742-23.022,5.07-46.288a4.871,4.871,0,0,1,2.425-2.425q55.324-.331,110.65-.22.11-11.684-.22-23.364a15.969,15.969,0,0,1-6.833-14.548q1.875-21.179,4.188-42.32A12.013,12.013,0,0,1,116.321-.5Zm5.29,6.613h15.87q.305,20.747-.661,41.439-5.091,10.21-15.209,5.07a11.677,11.677,0,0,1-3.747-12.564Q119.566,23.031,121.611,6.113Zm22.923,0h19.838q.11,20.059-.22,40.116-2,7.405-9.7,8.376-7.365-.536-9.7-7.494Q144.425,26.613,144.535,6.113Zm26.891,0h19.838q.11,20.28-.22,40.557-3.66,10.04-13.886,6.833a10.474,10.474,0,0,1-5.51-6.833Q171.316,26.392,171.426,6.113ZM140.567,55.045q11.57,11.493,25.128,2.425a17.161,17.161,0,0,0,2.2-2.425q10.93,11.225,24.246,2.865l2.865-2.865a5.063,5.063,0,0,0,1.763,1.763,137.061,137.061,0,0,1-.441,21.6,6.9,6.9,0,0,1-3.747,3.306q-24.687.441-49.374,0a6.629,6.629,0,0,1-4.188-4.629q-.441-10.139,0-20.278A8.619,8.619,0,0,0,140.567,55.045ZM124.7,61.217a18.808,18.808,0,0,0,7.053,0q-.11,8.379.22,16.752a13.4,13.4,0,0,0,9.919,10.8q26.009.441,52.019,0a13.361,13.361,0,0,0,9.478-9.037,142.718,142.718,0,0,0,.661-18.515,18.005,18.005,0,0,0,6.613,0q.661,18.069.441,36.148-39.676.11-79.35-.22-.913-6.231-1.543-12.564a4.688,4.688,0,0,0-5.51-2.645ZM11.4,88.99H31.681q.11,24.027-.22,48.051-3.5,12.824-16.531,10.36-10.255-4.527-8.155-15.65Q8.917,110.316,11.4,88.99Zm27.332,0H63.862q.11,24.468-.22,48.933Q59.673,150.1,47.11,147.4a12.226,12.226,0,0,1-8.155-9.478Q38.624,113.457,38.734,88.99Zm32.181,0H96.043q.11,24.688-.22,49.374-4.128,11.487-16.09,9.037a13.385,13.385,0,0,1-8.6-9.919Q70.805,113.237,70.915,88.99Zm32.181,0h20.719q1.875,21.177,4.188,42.32,2.165,14.424-12.123,16.752-9.2-.5-12.123-9.258Q102.786,113.923,103.1,88.99Zm29.1,15.429q41.219-.11,82.436.22,5.231,1.756,2.865,6.833a5.084,5.084,0,0,1-1.984,1.543q-41.217.331-82.436.22A74.674,74.674,0,0,0,132.191,104.419Zm-97.425,42.32q9.7,11.739,24.246,6.833a25.7,25.7,0,0,0,8.376-6.392q10.412,11.761,25.128,5.951a19.051,19.051,0,0,0,7.274-6.392,13.209,13.209,0,0,0,2.645,3.086q.441,12.564,0,25.128a8.265,8.265,0,0,1-6.392,5.951l-39.675.441q-4.489,3.6.441,6.613,20.058.441,40.116,0,10-1.855,12.564-11.682.11-11.028.661-22.042a18.754,18.754,0,0,0,9.258.441q.661,22.478.441,44.965H14.929q-.22-22.487.441-44.965a18.754,18.754,0,0,0,9.258-.441q.551,11.015.661,22.042,5.14,14.426,20.5,11.682,3.124-1.61,1.984-5.07l-1.543-1.543a53.988,53.988,0,0,1-8.817-.882,9.367,9.367,0,0,1-5.07-5.51q-.441-12.564,0-25.128A8.1,8.1,0,0,0,34.767,146.739ZM10.521,206.693q56.868-.11,113.736.22,5.881,2.621,3.306,8.6a6.1,6.1,0,0,1-5.07,2.865q-55.1.441-110.209,0-6.95-1.222-5.51-8.155A8.653,8.653,0,0,1,10.521,206.693Z" transform="translate(0.5 0.5)" fill-rule="evenodd" opacity="0.943"/>
    </g>
    <g id="Group_18" data-name="Group 18" transform="translate(143.45 135.718)">
      <path id="Path_34" data-name="Path 34" d="M360.187,308.5q11.881.093,15.209,11.462.331,4.844.22,9.7,11.2-2.139,18.735,6.172,6.016,11.577-3.747,20.058a11.89,11.89,0,0,1-5.29,2.2q-4.844.331-9.7.22.11,4.854-.22,9.7-4.279,13.442-18.295,10.8a14.852,14.852,0,0,1-9.919-11.241q-.331-4.623-.22-9.258-11.973,2.558-19.176-7.053-4.842-10.733,3.747-18.736a14.488,14.488,0,0,1,6.172-2.645q4.624-.331,9.258-.22-.11-4.634.22-9.258Q349.842,310.134,360.187,308.5Zm.441,7.053a8.294,8.294,0,0,1,7.715,5.29q.22,6.613.441,13.225a13.013,13.013,0,0,0,1.1,1.984l15.429,1.323q7.03,4.643,2.425,11.682a12.527,12.527,0,0,1-3.306,1.984l-13.225.441a3.377,3.377,0,0,0-2.425,2.425q-.22,6.613-.441,13.225-3.361,7.293-10.8,4.188a15.3,15.3,0,0,1-2.865-3.306,133.543,133.543,0,0,1-.882-14.548,3.586,3.586,0,0,0-2.425-1.984l-13.225-.441Q330.714,347.2,334.4,339.8a11.263,11.263,0,0,1,2.865-2.425,133.543,133.543,0,0,1,14.548-.882,3.076,3.076,0,0,0,1.543-1.1q.676-7.7,1.323-15.429A8.577,8.577,0,0,1,360.628,315.553Z" transform="translate(-326.04 -308.5)" fill-rule="evenodd" opacity="0.929"/>
    </g>
  </g>
</svg>
