<svg xmlns="http://www.w3.org/2000/svg" width="208.928" height="208.928" viewBox="0 0 208.928 208.928">
  <g id="placeholder" transform="translate(0.5 0.5)">
    <g id="Group_19" data-name="Group 19" transform="translate(-0.5 -0.5)">
      <path id="Path_35" data-name="Path 35" d="M25.616-.5h156.7A14.987,14.987,0,0,1,191.9,9.294q3.775,29.8,7.549,59.577a40.166,40.166,0,0,1,5.713.2,9.035,9.035,0,0,1,3.265,2.244V75.4a6.521,6.521,0,0,1-2.448,2.244q-7.342.306-14.69.2a15.365,15.365,0,0,1-1.02,7.345q-4.258,3.474-7.753-.816a52.442,52.442,0,0,1-.2-6.529H25.616q-.1,45.7.2,91.406,1.122,11.732,12.854,12.854l80.388.408q3.655,2.569,1.836,6.733a5.744,5.744,0,0,1-2.652,1.836l-41.01.2q-21.749.09-43.459-.612-14.715-3.9-16.935-18.975-.306-46.927-.2-93.855-7.348.1-14.69-.2A6.523,6.523,0,0,1-.5,75.4V71.319a9.037,9.037,0,0,1,3.265-2.244,40.167,40.167,0,0,1,5.713-.2L16.027,9.294A14.987,14.987,0,0,1,25.616-.5Zm2.04,8.977H59.485L52.14,68.871H17.863Q21.282,40.088,25,11.334A8.934,8.934,0,0,1,27.656,8.477Zm41.214,0h30.6V68.871q-19.18.1-38.358-.2Q65.117,38.61,68.871,8.477Zm39.582,0h30.6q3.754,30.132,7.753,60.189-19.178.306-38.358.2Zm39.99,0q15.916-.1,31.829.2a7.277,7.277,0,0,1,2.244,1.836q4.224,29.1,7.549,58.353H155.788Z" transform="translate(0.5 0.5)" fill-rule="evenodd" opacity="0.967"/>
    </g>
    <g id="Group_20" data-name="Group 20" transform="translate(121.118 95.225)">
      <path id="Path_36" data-name="Path 36" d="M384.847,271.795v11.834a81.118,81.118,0,0,1-12.038,30.2,164.8,164.8,0,0,1-29.585,33.461h-3.673a135.943,135.943,0,0,1-37.746-48.968q-9.113-21.347,1.224-42.031,16.542-26.373,47.539-21.423Q379.281,242.661,384.847,271.795Zm-44.071-28.972q27.388,1.7,34.481,28.156a43.792,43.792,0,0,1-4.081,26.524,139.229,139.229,0,0,1-29.789,39.174,132.846,132.846,0,0,1-29.381-37.95,45.681,45.681,0,0,1-4.489-28.564Q314.886,245.142,340.776,242.823Zm.408,26.116q11.626,2.44,7.141,13.466-6.378,6.821-13.466.816-4.253-6.819,1.428-12.446A12.182,12.182,0,0,1,341.185,268.939Z" transform="translate(-297.537 -234.083)" fill-rule="evenodd" opacity="0.945"/>
    </g>
    <g id="Group_21" data-name="Group 21" transform="translate(42.755 103.939)">
      <path id="Path_37" data-name="Path 37" d="M115.7,255.463q16.324-.1,32.645.2a13.727,13.727,0,0,1,9.589,10q.408,15.914,0,31.829a13.727,13.727,0,0,1-9.589,10q-16.323.408-32.645,0a12.891,12.891,0,0,1-10-10.814q-.408-15.1,0-30.2A13.489,13.489,0,0,1,115.7,255.463Zm1.632,8.977q14.488-.1,28.972.2a7.28,7.28,0,0,1,2.244,1.836,263.209,263.209,0,0,1,.408,28.972,4.542,4.542,0,0,1-1.836,2.652,275.95,275.95,0,0,1-29.789.408,4.328,4.328,0,0,1-2.652-3.877q-.408-13.058,0-26.116A4.892,4.892,0,0,1,117.334,264.44Z" transform="translate(-105.5 -255.437)" fill-rule="evenodd" opacity="0.963"/>
    </g>
  </g>
</svg>
