<svg xmlns="http://www.w3.org/2000/svg" width="271.093" height="243.776" viewBox="0 0 271.093 243.776">
  <g id="speech-bubble" transform="translate(0.5 -25.019)">
    <g id="Group_11" data-name="Group 11" transform="translate(-0.5 25.019)">
      <path id="Path_27" data-name="Path 27" d="M270.593,96.224v16.943a77.082,77.082,0,0,1-20.385,42.358q-3.4,18.139,9.531,31.239,1.717,9.271-7.677,7.942a55.567,55.567,0,0,1-27-7.677,135.28,135.28,0,0,1-11.384-8.207,111.77,111.77,0,0,1-30.975,5.295q-2.97,30.693-25.944,51.095-38.284,30.749-86.835,21.179a93.414,93.414,0,0,1-13.5-3.442A65.9,65.9,0,0,1,29.151,267.51a52.517,52.517,0,0,1-16.414,1.059,6.54,6.54,0,0,1-2.383-7.677q12.926-13.1,9.531-31.239A77.083,77.083,0,0,1-.5,187.294V170.351q7.2-37.522,40.24-56.919A105.831,105.831,0,0,1,87.394,99.4q3.46-32.955,29.121-53.742Q151.753,19.311,195.407,26.6a103.747,103.747,0,0,1,55.86,29.386A78.285,78.285,0,0,1,270.593,96.224ZM176.875,35.863q37.316.6,64.332,25.944,31.255,33.842,9.531,74.657a68.729,68.729,0,0,1-10.06,12.708,44.479,44.479,0,0,0,0,28.592,28.178,28.178,0,0,0,1.853,3.971,37.51,37.51,0,0,1-16.943-7.942l-7.942-6.883a6.615,6.615,0,0,0-3.706,0A104.394,104.394,0,0,1,182.7,173q-3.328-31.944-28.062-52.154l70.95-.529a6.539,6.539,0,0,0,2.383-7.677,7.682,7.682,0,0,0-2.383-2.383l-87.894-.529A95.087,95.087,0,0,0,98.513,99.4q4.728-33.688,33.887-51.095A91.783,91.783,0,0,1,176.875,35.863ZM92.159,109.99a91.32,91.32,0,0,1,54.007,18.267Q183.917,160,165.492,205.826q-18.64,32.708-55.86,39.976a106.142,106.142,0,0,1-53.477-4.765,6.615,6.615,0,0,0-3.706,0A65.584,65.584,0,0,1,32.328,254.8a11.648,11.648,0,0,1-4.765,1.059A43.256,43.256,0,0,0,29.416,223.3Q.991,193.518,15.649,155q17.158-32.23,52.683-41.564A130.549,130.549,0,0,1,92.159,109.99Z" transform="translate(0.5 -25.019)" fill-rule="evenodd" opacity="0.949"/>
    </g>
    <g id="Group_12" data-name="Group 12" transform="translate(129.635 78.054)">
      <path id="Path_28" data-name="Path 28" d="M248.043,125.352q9.391-1.331,7.677,7.942A5.684,5.684,0,1,1,245.661,128,17.4,17.4,0,0,1,248.043,125.352Z" transform="translate(-245.278 -125.184)" fill-rule="evenodd" opacity="0.908"/>
    </g>
    <g id="Group_13" data-name="Group 13" transform="translate(150.814 78.188)">
      <path id="Path_29" data-name="Path 29" d="M288.043,125.471q36.006-.133,72.009.265a6.539,6.539,0,0,1,2.383,7.677,7.682,7.682,0,0,1-2.383,2.383q-36,.53-72.009,0a6.539,6.539,0,0,1-2.383-7.677A17.4,17.4,0,0,1,288.043,125.471Z" transform="translate(-285.279 -125.437)" fill-rule="evenodd" opacity="0.989"/>
    </g>
    <g id="Group_14" data-name="Group 14" transform="translate(41.741 162.771)">
      <path id="Path_30" data-name="Path 30" d="M82.043,285.352q9.391-1.331,7.677,7.942a6.539,6.539,0,0,1-7.677,2.383A6.54,6.54,0,0,1,79.661,288,17.387,17.387,0,0,1,82.043,285.352Z" transform="translate(-79.279 -285.184)" fill-rule="evenodd" opacity="0.908"/>
    </g>
    <g id="Group_15" data-name="Group 15" transform="translate(62.92 162.905)">
      <path id="Path_31" data-name="Path 31" d="M122.043,285.471q36.006-.133,72.009.265a6.539,6.539,0,0,1,2.383,7.677,7.682,7.682,0,0,1-2.383,2.383q-36,.53-72.009,0a6.539,6.539,0,0,1-2.383-7.677A17.4,17.4,0,0,1,122.043,285.471Z" transform="translate(-119.278 -285.437)" fill-rule="evenodd" opacity="0.989"/>
    </g>
    <g id="Group_16" data-name="Group 16" transform="translate(41.741 194.674)">
      <path id="Path_32" data-name="Path 32" d="M82.043,345.471q46.6-.133,93.188.265a6.539,6.539,0,0,1,2.383,7.677,7.682,7.682,0,0,1-2.383,2.383q-46.594.53-93.188,0a6.54,6.54,0,0,1-2.383-7.677A17.384,17.384,0,0,1,82.043,345.471Z" transform="translate(-79.279 -345.437)" fill-rule="evenodd" opacity="0.991"/>
    </g>
  </g>
</svg>
